<?xml version="1.0" encoding="utf-8"?>
<!-- Uploaded to: SVG Repo, www.svgrepo.com, Generator: SVG Repo Mixer Tools -->
<svg fill="#000000" width="800px" height="800px" viewBox="0 0 32 32" version="1.1" xmlns="http://www.w3.org/2000/svg">
<title>bookmark</title>
<path d="M26 1.25h-20c-0.414 0-0.75 0.336-0.75 0.75v0 28.178c0 0 0 0 0 0.001 0 0.414 0.336 0.749 0.749 0.749 0.181 0 0.347-0.064 0.476-0.171l-0.001 0.001 9.53-7.793 9.526 7.621c0.127 0.102 0.29 0.164 0.468 0.164 0.414 0 0.75-0.336 0.751-0.75v-28c-0-0.414-0.336-0.75-0.75-0.75v0zM25.25 28.439l-8.781-7.025c-0.127-0.102-0.29-0.164-0.468-0.164-0.181 0-0.347 0.064-0.477 0.171l0.001-0.001-8.775 7.176v-25.846h18.5z"></path>
</svg>